<svg xmlns="http://www.w3.org/2000/svg" xmlns:xlink="http://www.w3.org/1999/xlink"><defs><clipPath id="a"><path fill="#fff" d="M0 0h32v32H0z"/></clipPath><clipPath id="a"><path fill="#fff" transform="translate(10 10)" d="M0 0h20v20H0z"/></clipPath><clipPath id="a"><path fill="#fff" d="M0 0h20v20H0z"/></clipPath></defs><symbol id="003-vk" viewBox="0 0 32 32"><g fill="none"><g clip-path="url(#a)"><path d="M16 32c8.837 0 16-7.163 16-16S24.837 0 16 0 0 7.163 0 16s7.163 16 16 16Z" fill="#4D76A1"/><path fill-rule="evenodd" clip-rule="evenodd" d="M15.396 23.017h1.256s.38-.041.573-.25c.178-.192.172-.552.172-.552s-.024-1.685.758-1.933c.771-.244 1.761 1.629 2.81 2.349.794.545 1.397.425 1.397.425l2.805-.039s1.468-.09.772-1.244c-.057-.095-.405-.854-2.086-2.414-1.76-1.633-1.524-1.369.596-4.193 1.29-1.72 1.806-2.77 1.645-3.22-.154-.429-1.103-.315-1.103-.315l-3.159.02s-.234-.033-.408.071c-.17.102-.279.34-.279.34s-.5 1.33-1.166 2.462c-1.407 2.39-1.97 2.515-2.2 2.367-.534-.346-.4-1.389-.4-2.13 0-2.315.35-3.28-.684-3.53-.344-.083-.597-.137-1.475-.146-1.127-.012-2.081.003-2.621.268-.36.176-.637.568-.468.59.209.029.682.128.932.47.324.44.313 1.429.313 1.429s.186 2.725-.435 3.063c-.426.233-1.01-.241-2.264-2.409-.642-1.11-1.127-2.337-1.127-2.337s-.094-.229-.26-.352c-.203-.148-.486-.196-.486-.196l-3.002.02s-.45.013-.616.209c-.147.174-.012.534-.012.534s2.35 5.499 5.011 8.27c2.44 2.54 5.211 2.373 5.211 2.373Z" fill="#fff"/></g></g></symbol><symbol id="email-icon" viewBox="0 0 40 40"><g fill="none"><circle cx="20" cy="20" r="19.5" stroke="#8EE901"/><g clip-path="url(#a)" fill="#8EE901"><path d="M27.558 12.39H12.446A2.448 2.448 0 0 0 10 14.835v10.33a2.448 2.448 0 0 0 2.446 2.445h15.108A2.448 2.448 0 0 0 30 25.164V14.84a2.445 2.445 0 0 0-2.442-2.45Zm1.329 12.774a1.33 1.33 0 0 1-1.329 1.329H12.446a1.33 1.33 0 0 1-1.329-1.329V14.84a1.33 1.33 0 0 1 1.329-1.328h15.108a1.33 1.33 0 0 1 1.329 1.329v10.324h.004Z"/><path d="m22.61 19.871 4.892-4.386a.561.561 0 0 0 .042-.79.561.561 0 0 0-.79-.042l-6.746 6.054-1.316-1.175c-.004-.004-.008-.008-.008-.012a.815.815 0 0 0-.091-.079l-5.355-4.792a.558.558 0 0 0-.79.046.558.558 0 0 0 .045.79l4.95 4.424-4.93 4.614a.56.56 0 0 0 .766.82l5.003-4.681 1.358 1.212a.558.558 0 0 0 .744-.004l1.395-1.25 4.974 4.726a.558.558 0 1 0 .77-.811l-4.912-4.664Z"/></g></g></symbol><symbol id="phone-icon" viewBox="0 0 20 20"><g fill="none"><g clip-path="url(#a)" fill="#8EE901"><path d="M15.807 12.39c-.41-.427-.903-.655-1.426-.655-.52 0-1.018.224-1.444.65l-1.334 1.33c-.11-.06-.22-.114-.325-.17a5.389 5.389 0 0 1-.418-.223c-1.25-.793-2.385-1.828-3.474-3.166-.527-.667-.882-1.228-1.14-1.798.347-.317.667-.646.98-.962l.354-.36c.887-.886.887-2.034 0-2.92L6.428 2.963c-.13-.13-.266-.266-.393-.4a19.93 19.93 0 0 0-.793-.786c-.41-.405-.9-.62-1.414-.62-.515 0-1.013.215-1.435.62l-.009.009L.95 3.234a3.088 3.088 0 0 0-.916 1.962c-.101 1.233.262 2.381.54 3.132.684 1.845 1.706 3.555 3.23 5.387a19.864 19.864 0 0 0 6.614 5.179c.97.46 2.267 1.005 3.715 1.097.088.005.181.009.266.009.975 0 1.794-.35 2.435-1.047.004-.008.013-.013.017-.021.22-.266.473-.507.739-.764.181-.173.367-.355.549-.545.417-.434.637-.94.637-1.46 0-.524-.224-1.026-.65-1.448l-2.318-2.326Zm1.512 4.444c-.005 0-.005.004 0 0-.165.177-.334.338-.515.515-.275.262-.553.536-.815.844-.426.456-.929.671-1.587.671-.064 0-.131 0-.194-.004-1.254-.08-2.42-.57-3.293-.988a18.75 18.75 0 0 1-6.23-4.88c-1.44-1.734-2.402-3.338-3.04-5.06-.392-1.051-.536-1.87-.472-2.643.042-.494.232-.903.582-1.253l1.44-1.44c.206-.194.426-.3.641-.3.266 0 .481.16.617.296l.012.013c.258.24.503.49.76.755.13.135.266.27.401.41l1.152 1.152c.448.447.448.861 0 1.309-.122.122-.24.244-.363.363-.354.363-.692.7-1.06 1.03-.008.008-.016.012-.02.02-.363.364-.296.718-.22.959l.013.038c.3.726.722 1.41 1.363 2.224l.005.005c1.165 1.435 2.393 2.553 3.748 3.41.173.11.35.199.52.283.151.076.295.148.417.224.017.008.034.02.05.03a.915.915 0 0 0 .419.105c.35 0 .57-.22.641-.291l1.444-1.444c.143-.143.371-.317.637-.317.262 0 .477.165.608.309l.008.008 2.326 2.326c.435.43.435.874.005 1.321ZM10.81 4.757c1.107.186 2.111.71 2.913 1.512a5.38 5.38 0 0 1 1.512 2.912.566.566 0 0 0 .561.473.57.57 0 0 0 .566-.667 6.51 6.51 0 0 0-1.828-3.525 6.51 6.51 0 0 0-3.525-1.827.573.573 0 0 0-.658.464.564.564 0 0 0 .46.658ZM19.978 8.822a10.711 10.711 0 0 0-3.01-5.804 10.71 10.71 0 0 0-5.804-3.01.568.568 0 0 0-.654.465.573.573 0 0 0 .468.659 9.59 9.59 0 0 1 5.188 2.688 9.563 9.563 0 0 1 2.689 5.188.566.566 0 0 0 .561.473.56.56 0 0 0 .561-.659Z"/></g></g></symbol></svg>